<svg id="Layer_1" data-name="Layer 1" xmlns="http://www.w3.org/2000/svg" xmlns:xlink="http://www.w3.org/1999/xlink"
     viewBox="0 0 605.54 129.61">
    <defs>
        <style>
            .cls-1{fill:#222;}.cls-2{fill:url(#New_Gradient_Swatch_2);}.cls-3{fill:url(#New_Gradient_Swatch_2-2);}.cls-4{fill:url(#New_Gradient_Swatch_2-3);}.cls-5{fill:url(#New_Gradient_Swatch_2-4);}
        </style>
        <linearGradient id="New_Gradient_Swatch_2" x1="595.57" y1="433.26" x2="481.03" y2="433.26"
                        gradientUnits="userSpaceOnUse">
            <stop offset="0" stop-color="#f072a6"/>
            <stop offset="1" stop-color="#ec1b68"/>
        </linearGradient>
        <linearGradient id="New_Gradient_Swatch_2-2" x1="576.97" y1="433.27" x2="532.53" y2="433.27"
                        xlink:href="#New_Gradient_Swatch_2"/>
        <linearGradient id="New_Gradient_Swatch_2-3" x1="532.53" y1="433.27" x2="568.8" y2="433.27"
                        xlink:href="#New_Gradient_Swatch_2"/>
        <linearGradient id="New_Gradient_Swatch_2-4" x1="587.42" y1="482.99" x2="504.09" y2="383.68"
                        xlink:href="#New_Gradient_Swatch_2"/>
    </defs>
    <title>ProjectX_Conce logo_GM_28-JAN-2021_V1_R1</title>
    <path class="cls-1"
          d="M702.06,431v-.36c0-27.46,22.46-50.45,53.48-50.45,30.85,0,53.13,22.64,53.13,50.09v.36c0,27.46-22.46,50.46-53.48,50.46C724.34,481.1,702.06,458.45,702.06,431Zm73.63,0v-.36c0-11.77-8.56-21.75-20.5-21.75-12.3,0-20.15,9.81-20.15,21.39v.36c0,11.77,8.56,21.75,20.5,21.75C767.85,452.39,775.69,442.59,775.69,431Z"
          transform="translate(-481.03 -368.46)"/>
    <path class="cls-1"
          d="M694.87,442.9c-5.25,6.05-10.38,9.67-18.27,9.67-11.41,0-19.26-9.45-19.26-21.93v-.36c0-11.76,8-21.39,18.9-21.39,8.2,0,13.37,3.74,18,10.16l.67-.5a49.44,49.44,0,0,1,15.51-25.17c-8.13-8.08-19.34-13-34.37-13-30.48,0-51.7,23-51.7,50.28V431c0,27.28,21.39,50.1,50.46,50.1,15.89,0,27.08-5,35.44-13.06A49,49,0,0,1,694.87,442.9Z"
          transform="translate(-481.03 -368.46)"/>
    <path class="cls-1"
          d="M814,382.33H847.9v13.54c6.24-8,15.15-15.68,28.88-15.68,20.5,0,32.81,13.55,32.81,35.47v63.12H875.71V426.54c0-10.52-5.53-16.22-13.55-16.22-8.2,0-14.26,5.7-14.26,16.22v52.24H814Z"
          transform="translate(-481.03 -368.46)"/>
    <path class="cls-1"
          d="M989.22,431v-.36c0-28.17,20.15-50.45,48.68-50.45,33.34,0,48.67,24.42,48.67,52.77,0,2.14,0,4.63-.18,7h-64.54c2.68,10.52,10.34,15.87,20.86,15.87,8,0,14.44-3,21.39-9.81l18.73,15.51c-9.28,11.77-22.65,19.62-41.9,19.62C1010.62,481.1,989.22,461,989.22,431Zm65.61-8.38c-1.24-10.7-7.48-17.47-16.76-17.47-8.91,0-15,7-16.75,17.47Z"
          transform="translate(-481.03 -368.46)"/>
    <path class="cls-1"
          d="M983.27,444.07c-4.9,5.34-9.86,8.5-17.22,8.5-11.41,0-19.25-9.45-19.25-21.93v-.36c0-11.76,8-21.39,18.9-21.39,7.87,0,12.95,3.46,17.45,9.42A49.26,49.26,0,0,1,998.41,392c-8-7.25-18.75-11.63-32.89-11.63-30.49,0-51.71,23-51.71,50.28V431c0,27.28,21.4,50.1,50.46,50.1,15.1,0,26-4.53,34.17-11.89A46.29,46.29,0,0,1,983.27,444.07Z"
          transform="translate(-481.03 -368.46)"/>
    <path class="cls-2"
          d="M500,387.42a65.31,65.31,0,0,1,58.57-17.74,64.47,64.47,0,0,1,28.11,13.25c3.84,3.12,7.81,6.51,8.69,11.64a13.56,13.56,0,0,1-3.75,11.72c-3.57,3.69-7.27,7.27-10.9,10.9a38.22,38.22,0,1,0,0,32.14l8.58,8.58a43.23,43.23,0,0,1,3.33,3.44,13.37,13.37,0,0,1,2.7,10.82c-.77,4.07-3.41,6.84-6.41,9.51A64.82,64.82,0,0,1,500,387.42Z"
          transform="translate(-481.03 -368.46)"/>
    <path class="cls-3"
          d="M577,445.57l-12.31-12.31L577,421l-.77-1.66a33.45,33.45,0,0,0-14.27-15.21L559.62,403c-.56-.25-1.13-.44-1.7-.66l-21.49,21.49a13.3,13.3,0,0,0,0,18.82l21.51,21.51c.23-.09.47-.16.7-.26l2.19-.91a33.41,33.41,0,0,0,15.37-15.78Z"
          transform="translate(-481.03 -368.46)"/>
    <path class="cls-4"
          d="M554,442.67a13.3,13.3,0,0,1,0-18.82l14.76-14.77a32.94,32.94,0,0,0-6.86-5L559.62,403c-.56-.25-1.13-.44-1.7-.66l-21.49,21.49a13.3,13.3,0,0,0,0,18.82l21.51,21.51c.23-.09.47-.16.7-.26l2.19-.91a33.27,33.27,0,0,0,8-5.56Z"
          transform="translate(-481.03 -368.46)"/>
    <path class="cls-5"
          d="M546.3,487.76a54.1,54.1,0,1,1,46.12-82.36,13.43,13.43,0,0,0,3-10.83c-.88-5.13-4.85-8.52-8.69-11.64a64.47,64.47,0,0,0-28.11-13.25,64.83,64.83,0,1,0-4.18,127.84,64.26,64.26,0,0,0,34.53-15.84c3-2.67,5.64-5.44,6.41-9.51a13.41,13.41,0,0,0-2.62-10.73A54.07,54.07,0,0,1,546.3,487.76Z"
          transform="translate(-481.03 -368.46)"/>
</svg>
